<?xml version="1.0" encoding="iso-8859-1"?>
<!-- Generator: Adobe Illustrator 19.0.0, SVG Export Plug-In . SVG Version: 6.00 Build 0)  -->
<svg version="1.1" id="Layer_1" xmlns="http://www.w3.org/2000/svg" xmlns:xlink="http://www.w3.org/1999/xlink" x="0px" y="0px"
	 viewBox="0 0 512 512" style="enable-background:new 0 0 512 512;" xml:space="preserve">
<g>
	<path style="fill:#8697CB;" d="M437.543,113.765c-9.719,11.396-24.152,18.653-40.298,18.653c-29.255,0-52.966-23.72-52.966-52.966
		c0-9.896,2.763-19.129,7.486-27.048c-26.818-10.99-56.161-17.09-86.934-17.09c-126.764,0-229.517,102.753-229.517,229.517
		c0,126.755,102.753,229.517,229.517,229.517c18.918,0,37.288-2.339,54.881-6.656c-1.148-3.487-1.916-7.133-1.916-10.999
		c0-19.509,15.801-35.31,35.31-35.31c13.727,0,25.485,7.91,31.329,19.35c65.916-40.333,109.912-112.975,109.912-195.902
		C494.349,206.957,472.88,154.133,437.543,113.765"/>
	<g>
		<path style="fill:#F3D55B;" d="M476.689,467.862c0,4.873-3.955,8.828-8.828,8.828c-4.873,0-8.828-3.955-8.828-8.828
			s3.955-8.828,8.828-8.828C472.734,459.034,476.689,462.989,476.689,467.862"/>
		<path style="fill:#F3D55B;" d="M512,88.276c0,4.873-3.955,8.828-8.828,8.828s-8.828-3.955-8.828-8.828
			c0-4.873,3.955-8.828,8.828-8.828S512,83.403,512,88.276"/>
		<path style="fill:#F3D55B;" d="M70.62,503.172c0,4.873-3.955,8.828-8.828,8.828s-8.828-3.955-8.828-8.828
			c0-4.873,3.955-8.828,8.828-8.828S70.62,498.3,70.62,503.172"/>
	</g>
	<path style="fill:#D75A4A;" d="M388.413,476.69c0,19.5-15.81,35.31-35.31,35.31c-19.5,0-35.31-15.81-35.31-35.31
		c0-19.5,15.81-35.31,35.31-35.31C372.603,441.379,388.413,457.19,388.413,476.69"/>
	<path style="fill:#F3D55B;" d="M35.284,44.138c3.354,2.516,6.338,5.508,8.854,8.854c2.516-3.346,5.5-6.338,8.854-8.854
		c-3.354-2.516-6.338-5.508-8.854-8.854C41.623,38.63,38.639,41.622,35.284,44.138 M44.138,88.276c-4.882,0-8.828-3.955-8.828-8.828
		c0-14.601-11.882-26.483-26.483-26.483C3.946,52.966,0,49.011,0,44.138s3.946-8.828,8.828-8.828
		c14.601,0,26.483-11.882,26.483-26.483C35.311,3.955,39.257,0,44.138,0s8.828,3.955,8.828,8.828
		c0,14.601,11.882,26.483,26.483,26.483c4.882,0,8.828,3.955,8.828,8.828s-3.946,8.828-8.828,8.828
		c-14.601,0-26.483,11.882-26.483,26.483C52.966,84.321,49.02,88.276,44.138,88.276"/>
	<path style="fill:#8697CB;" d="M77.129,282.483H36.054c0.45,5.95,1.068,11.847,1.96,17.655h39.115c4.882,0,8.828-3.955,8.828-8.828
		C85.956,286.438,82.01,282.483,77.129,282.483"/>
	<g>
		<path style="fill:#434C6D;" d="M308.965,300.138H141.241c-4.882,0-8.828-3.955-8.828-8.828c0-4.873,3.946-8.828,8.828-8.828
			h167.724c4.882,0,8.828,3.955,8.828,8.828C317.793,296.183,313.847,300.138,308.965,300.138"/>
		<path style="fill:#434C6D;" d="M379.586,353.103H194.206c-4.882,0-8.828-3.955-8.828-8.828c0-4.873,3.946-8.828,8.828-8.828
			h185.379c4.882,0,8.828,3.955,8.828,8.828C388.413,349.149,384.467,353.103,379.586,353.103"/>
		<path style="fill:#434C6D;" d="M300.137,247.172h-88.276c-4.882,0-8.828-3.955-8.828-8.828c0-4.873,3.946-8.828,8.828-8.828
			h88.276c4.882,0,8.828,3.955,8.828,8.828C308.965,243.218,305.019,247.172,300.137,247.172"/>
		<path style="fill:#434C6D;" d="M291.31,150.069h-88.276c-4.882,0-8.828-3.955-8.828-8.828s3.946-8.828,8.828-8.828h88.276
			c4.882,0,8.828,3.955,8.828,8.828S296.192,150.069,291.31,150.069"/>
		<path style="fill:#434C6D;" d="M344.275,97.103H291.31c-4.882,0-8.828-3.955-8.828-8.828c0-4.873,3.946-8.828,8.828-8.828h52.966
			c4.882,0,8.828,3.955,8.828,8.828C353.103,93.149,349.157,97.103,344.275,97.103"/>
		<path style="fill:#434C6D;" d="M480.143,185.379H275.969c-4.873,0-8.828,3.955-8.828,8.828s3.955,8.828,8.828,8.828h209.929
			C484.221,197.041,482.279,191.161,480.143,185.379"/>
		<path style="fill:#434C6D;" d="M491.535,300.138c0.9-5.817,1.624-11.697,2.074-17.655H379.584c-4.882,0-8.828,3.955-8.828,8.828
			c0,4.873,3.946,8.828,8.828,8.828H491.535z"/>
		<path style="fill:#434C6D;" d="M458.162,388.414H257.546c-4.882,0-8.828,3.955-8.828,8.828c0,4.873,3.946,8.828,8.828,8.828
			h188.072C450.067,400.384,454.26,394.505,458.162,388.414"/>
		<path style="fill:#434C6D;" d="M282.482,441.379c0-4.873-3.946-8.828-8.828-8.828H108.226c6.744,6.303,13.868,12.2,21.327,17.655
			h144.102C278.536,450.207,282.482,446.252,282.482,441.379"/>
		<path style="fill:#434C6D;" d="M202.526,388.414H71.471c3.902,6.091,8.077,11.979,12.518,17.655h118.537
			c4.882,0,8.828-3.955,8.828-8.828C211.353,392.369,207.407,388.414,202.526,388.414"/>
		<path style="fill:#434C6D;" d="M132.413,229.517H38.02c-0.9,5.809-1.518,11.705-1.969,17.655h96.362
			c4.882,0,8.828-3.955,8.828-8.828C141.241,233.472,137.295,229.517,132.413,229.517"/>
		<path style="fill:#434C6D;" d="M217.698,185.379H49.444c-2.127,5.773-3.981,11.679-5.65,17.655h173.903
			c4.882,0,8.828-3.955,8.828-8.828S222.579,185.379,217.698,185.379"/>
		<path style="fill:#434C6D;" d="M235.016,97.103c4.882,0,8.828-3.955,8.828-8.828c0-4.873-3.946-8.828-8.828-8.828H129.553
			c-7.468,5.455-14.583,11.352-21.327,17.655H235.016z"/>
	</g>
	<path style="fill:#ADD7DB;" d="M450.206,79.448c0,29.255-23.711,52.966-52.966,52.966s-52.966-23.711-52.966-52.966
		s23.711-52.966,52.966-52.966S450.206,50.194,450.206,79.448"/>
</g>
<g>
</g>
<g>
</g>
<g>
</g>
<g>
</g>
<g>
</g>
<g>
</g>
<g>
</g>
<g>
</g>
<g>
</g>
<g>
</g>
<g>
</g>
<g>
</g>
<g>
</g>
<g>
</g>
<g>
</g>
</svg>
